General
Complete name : Nicki Minaj - Pound The Alarm (Explicit) 720p HD {ECS}.mp4
Format : MPEG-4
Format profile : Base Media
Codec ID : isom
File size : 65.1 MiB
Duration : 4mn 13s
Overall bit rate mode : Variable
Overall bit rate : 2 156 Kbps
Encoded date : UTC 2012-08-01 19:01:59
Tagged date : UTC 2012-08-01 19:01:59

Video
ID : 1
Format : AVC
Format/Info : Advanced Video Codec
Format profile : High@L4.1
Format settings, CABAC : Yes
Format settings, ReFrames : 3 frames
Codec ID : avc1
Codec ID/Info : Advanced Video Coding
Duration : 4mn 13s
Bit rate mode : Variable
Bit rate : 2 020 Kbps
Maximum bit rate : 40.0 Mbps
Width : 1 280 pixels
Height : 720 pixels
Display aspect ratio : 16:9
Frame rate mode : Constant
Frame rate : 24.000 fps
Color space : YUV
Chroma subsampling : 4:2:0
Bit depth : 8 bits
Scan type : Progressive
Bits/(Pixel*Frame) : 0.091
Stream size : 61.2 MiB (94%)
Writing library : x264 core 125 r2200 999b753

Audio
ID : 2
Format : AC-3
Format/Info : Audio Coding 3
Mode extension : CM (complete main)
Format settings, Endianness : Big
Codec ID : ac-3
Duration : 4mn 13s
Bit rate mode : Constant
Bit rate : 128 Kbps
Channel(s) : 2 channels
Channel positions : Front: L R
Sampling rate : 44.1 KHz
Bit depth : 16 bits
Compression mode : Lossy
Stream size : 3.87 MiB (6%)

 
http://i1271.photobucket.com/albums/jj629/sameer_ecs/NickiMinaj-PoundTheAlarmExplicit720pHDECSmp4_thumbs_20120802_012821.jpg